<svg width="232" height="56" viewBox="0 0 232 56" fill="none" xmlns="http://www.w3.org/2000/svg">
<path d="M10.9316 0.613037H21.4224V3.705H17.9395V47.5256H14.8155V3.705H10.9316V0.613037Z" fill="white"/>
<path d="M36.3756 7.06354C36.4318 7.06354 36.46 7.34786 36.46 7.9165C36.46 8.48514 36.453 9.05378 36.4389 9.6224V10.4487C35.3272 10.4487 34.3421 10.733 33.4837 11.3017C32.6394 11.8525 31.8092 12.8565 30.993 14.3136V47.5256H27.8478V7.54333H30.993V11.9947C31.3589 10.4309 31.9992 9.22258 32.9138 8.36963C33.8426 7.49891 34.9965 7.06354 36.3756 7.06354Z" fill="white"/>
<path d="M43.0754 7.54327H46.2417V47.5256H43.0754V7.54327ZM43.0754 0.0266113H46.2205V3.8649H43.0754V0.0266113Z" fill="white"/>
<path d="M64.4032 19.2448C64.4032 16.1173 64.2976 14.1715 64.0865 13.4074C63.8896 12.6255 63.6504 11.9591 63.3689 11.4083C63.0875 10.8574 62.623 10.582 61.9758 10.582C61.3285 10.582 60.85 10.6353 60.5404 10.7419C59.7805 11.0084 59.2247 11.7814 58.8728 13.0609C58.521 14.3225 58.3451 16.4016 58.3451 19.2981V35.1843C58.3451 38.5784 58.5562 40.9773 58.9783 42.3811C59.4146 43.7672 60.2308 44.4602 61.4269 44.4602C62.623 44.4602 63.4182 43.7672 63.8122 42.3811C64.2061 40.995 64.4032 38.5517 64.4032 35.0511V19.2448ZM58.3451 10.6086C59.091 8.36963 60.4911 7.25012 62.5456 7.25012C63.9811 7.25012 65.0576 7.8543 65.7752 9.06265C66.507 10.2532 66.9855 11.7992 67.2105 13.7006C67.4357 15.5842 67.5484 17.8587 67.5484 20.5242V34.8645C67.5484 34.9178 67.5484 34.98 67.5484 35.0511C67.5484 40.08 67.0277 43.5006 65.9863 45.3131C64.9449 47.108 63.5236 48.0053 61.7224 48.0053C61.0048 48.0053 60.3293 47.6855 59.6961 47.0458C59.0769 46.3883 58.6265 45.5886 58.3451 44.6469V54.5891H55.2001V7.54332H58.3451V10.6086Z" fill="white"/>
<path d="M88.5047 8.02306L88.5258 9.11591C88.5258 11.035 89.3138 14.4469 90.8899 19.3513C91.9735 17.6454 92.8038 15.9751 93.3807 14.3402C93.9717 12.6877 94.2673 10.8485 94.2673 8.82269C94.2673 6.79693 94.0914 5.35757 93.7395 4.50461C93.3877 3.63389 92.5574 3.19853 91.2488 3.19853C89.5461 3.19853 88.6455 4.43354 88.5469 6.90356C88.5328 7.29449 88.5187 7.55215 88.5047 7.67655C88.5047 7.78316 88.5047 7.89866 88.5047 8.02306ZM97.5812 37.7964C99.5795 43.092 100.79 46.3348 101.212 47.5256H98.5945C98.2285 46.4238 97.4828 44.4158 96.357 41.5016C95.6533 43.5096 94.9286 44.9489 94.1829 45.8196C93.437 46.6904 92.6911 47.2768 91.9454 47.5788C91.2136 47.8987 90.3692 48.0585 89.4124 48.0585C87.4985 48.0585 85.9505 47.2235 84.7684 45.5531C83.5864 43.8827 82.9954 41.5904 82.9954 38.6761C82.9954 35.7619 83.2275 33.6028 83.692 32.199C84.1705 30.7952 84.6207 29.5601 85.0429 28.4939C85.465 27.4278 86.7738 25.331 88.9691 22.2035C86.6189 15.5575 85.444 11.1772 85.444 9.0626C85.444 3.03861 87.4563 0.0266113 91.4809 0.0266113C93.831 0.0266113 95.3719 0.808485 96.1037 2.37223C96.8494 3.93599 97.2223 6.12169 97.2223 8.92932C97.2223 11.737 96.7299 14.1892 95.7448 16.286C94.7739 18.3651 93.5495 20.5596 92.072 22.8697C93.0711 25.7841 94.415 29.4446 96.1037 33.8516C97.2435 30.8307 98.4959 28.3073 99.8609 26.2816L101.317 29.1337C100.051 31.124 98.8055 34.0115 97.5812 37.7964ZM94.7949 37.5033C92.7404 32.279 91.2276 28.3608 90.2567 25.7484C89.0747 27.7387 88.1036 29.7556 87.3436 31.7992C86.5838 33.8427 86.1968 36.1795 86.1828 38.8094C86.1828 42.7544 87.386 44.7267 89.7923 44.7267C91.1151 44.7267 92.2268 43.7494 93.1274 41.7947C93.5776 40.7819 94.1336 39.3513 94.7949 37.5033Z" fill="white"/>
<path d="M130.907 0.613037H134.432V47.5256H131.583V27.4278L132.068 8.52951L126.77 46.5126H123.772L118.284 8.52951L118.77 27.4278V47.5256H115.899V0.613037H119.424L125.271 40.0088L130.907 0.613037Z" fill="white"/>
<path d="M143.391 7.54327H146.557V47.5256H143.391V7.54327ZM143.391 0.0266113H146.536V3.8649H143.391V0.0266113Z" fill="white"/>
<path d="M158.66 11.4616C158.942 10.271 159.561 9.24034 160.518 8.36962C161.489 7.48112 162.629 7.03687 163.937 7.03687C165.246 7.03687 166.322 7.72101 167.168 9.0893C168.012 10.4576 168.433 12.51 168.433 15.2466V47.5256H165.288V14.9267C165.288 13.3807 165.007 12.2701 164.445 11.5948C163.895 10.9018 163.157 10.5553 162.227 10.5553C159.849 10.5553 158.66 12.0391 158.66 15.0067V47.5256H155.515V7.54331H158.66V11.4616Z" fill="white"/>
<path d="M185.729 19.8845C185.729 16.4549 185.519 14.056 185.097 12.6877C184.688 11.3016 183.886 10.6086 182.69 10.6086C181.494 10.6086 180.692 11.3194 180.284 12.741C179.875 14.1448 179.671 16.5882 179.671 20.071V35.904C179.671 39.5646 179.897 41.9102 180.347 42.941C180.811 43.9715 181.494 44.4869 182.394 44.4869C183.295 44.4869 183.935 44.2826 184.315 43.8738C184.71 43.4474 185.04 42.7454 185.307 41.7682C185.588 40.773 185.729 38.836 185.729 35.9573V19.8845ZM185.709 0H188.874V47.5256H185.709V44.4869C184.977 46.7082 183.576 47.8187 181.508 47.8187C179.158 47.801 177.666 46.0328 177.033 42.5144C176.681 40.5774 176.506 37.9742 176.506 34.7046V20.6574C176.506 15.291 177.012 11.6837 178.025 9.83563C179.052 7.98755 180.495 7.06352 182.352 7.06352C183.07 7.06352 183.731 7.39227 184.337 8.04976C184.956 8.68947 185.413 9.47134 185.709 10.3954V0Z" fill="white"/>
<path fill-rule="evenodd" clip-rule="evenodd" d="M222.407 12.8231L231.578 24.4032C232.141 25.1139 232.141 26.2659 231.578 26.9766L222.407 38.5566C221.844 39.2673 220.932 39.2673 220.37 38.5566C219.807 37.8461 219.807 36.6939 220.37 35.9833L227.08 27.5096H201.738V23.8702H227.08L220.37 15.3965C219.807 14.6859 219.807 13.5337 220.37 12.8231C220.932 12.1125 221.844 12.1125 222.407 12.8231Z" fill="#EFC224"/>
<path d="M5.76398 23.8702H0V27.5094H5.76398V23.8702Z" fill="#EFC224"/>
</svg>
